<svg xmlns="http://www.w3.org/2000/svg" xmlns:xlink="http://www.w3.org/1999/xlink" width="500" zoomAndPan="magnify" viewBox="0 0 375 374.999991" height="500" preserveAspectRatio="xMidYMid meet" version="1.0"><defs><clipPath id="7414b0bf58"><path d="M 32.171875 6.359375 L 342.671875 6.359375 L 342.671875 368.609375 L 32.171875 368.609375 Z M 32.171875 6.359375 " clip-rule="nonzero"/></clipPath><clipPath id="5f4919b327"><path d="M 0 295.140625 L 37.5 295.140625 L 37.5 368.640625 L 0 368.640625 Z M 0 295.140625 " clip-rule="nonzero"/></clipPath></defs><rect x="-37.5" width="450" fill="#ffffff" y="-37.499999" height="449.999989" fill-opacity="1"/><rect x="-37.5" width="450" fill="#ffffff" y="-37.499999" height="449.999989" fill-opacity="1"/><g clip-path="url(#7414b0bf58)"><path fill="#2063ed" d="M 187.496094 6.359375 L 32.238281 58.109375 L 32.238281 187.496094 C 32.238281 291 187.496094 368.632812 187.496094 368.632812 C 187.496094 368.632812 342.757812 291 342.757812 187.496094 L 342.757812 58.109375 Z M 174.558594 240.828125 L 109.089844 175.332031 L 136.519531 147.902344 L 174.558594 185.941406 L 264.351562 96.148438 L 291.78125 123.578125 Z M 174.558594 240.828125 " fill-opacity="1" fill-rule="nonzero"/></g><g clip-path="url(#5f4919b327)"><path fill="#ffffff" d="M -37.5 299.703125 C -27.691406 299.703125 -18.179688 300.632812 -9.210938 302.492188 C -0.660156 304.261719 7.019531 306.78125 13.558594 309.992188 C 19.800781 313.050781 24.871094 316.710938 28.199219 320.550781 C 31.378906 324.242188 33 328.050781 33 331.890625 C 33 335.730469 31.378906 339.542969 28.199219 343.230469 C 24.871094 347.070312 19.800781 350.730469 13.558594 353.792969 C 7.019531 357.003906 -0.660156 359.523438 -9.210938 361.292969 C -18.148438 363.152344 -27.660156 364.082031 -37.5 364.082031 C -47.339844 364.082031 -56.820312 363.152344 -65.789062 361.292969 C -74.339844 359.523438 -82.019531 357.003906 -88.558594 353.792969 C -94.800781 350.730469 -99.871094 347.070312 -103.199219 343.230469 C -106.378906 339.542969 -108 335.730469 -108 331.890625 C -108 328.050781 -106.378906 324.242188 -103.199219 320.550781 C -99.871094 316.710938 -94.800781 313.050781 -88.558594 309.992188 C -82.019531 306.78125 -74.339844 304.261719 -65.789062 302.492188 C -56.820312 300.664062 -47.308594 299.703125 -37.5 299.703125 M -37.5 295.203125 C -78.929688 295.203125 -112.5 311.640625 -112.5 331.890625 C -112.5 352.140625 -78.929688 368.582031 -37.5 368.582031 C 3.929688 368.582031 37.5 352.171875 37.5 331.890625 C 37.5 311.640625 3.929688 295.203125 -37.5 295.203125 Z M -37.5 295.203125 " fill-opacity="1" fill-rule="nonzero"/></g></svg>